<svg width="47" height="39" viewBox="0 0 47 39" fill="none" xmlns="http://www.w3.org/2000/svg">
<g filter="url(#filter0_d_6_307)">
<path d="M38.3186 3.46949C34.7691 0.524518 29.1565 0.0256266 28.9193 0.00446149C28.5445 -0.0287979 28.1886 0.190412 28.0349 0.544172C28.029 0.556266 27.7157 1.49509 27.4126 2.40065C31.5375 3.14596 34.3401 4.79986 34.4895 4.89057C35.1894 5.31085 35.4237 6.23758 35.0151 6.9587C34.7443 7.43945 34.2537 7.70855 33.75 7.70855C33.4996 7.70855 33.2478 7.64354 33.0164 7.50446C32.9754 7.47876 28.8637 5.06292 23.5029 5.06292C18.1407 5.06292 14.0275 7.48027 13.9865 7.50446C13.2881 7.92323 12.3919 7.6768 11.9863 6.95417C11.5807 6.23456 11.8165 5.31085 12.5135 4.89057C12.6628 4.79986 15.4757 3.13992 19.6123 2.39612C19.2931 1.47997 18.971 0.556266 18.9651 0.544172C18.8114 0.188901 18.4555 -0.0348451 18.0807 0.00446149C17.8435 0.0241148 12.2309 0.523006 8.63457 3.50879C6.75443 5.30178 3 15.7845 3 24.8477C3 25.008 3.03954 25.1637 3.11714 25.3028C5.71039 30.0045 12.78 31.2351 14.3907 31.288C14.4009 31.2895 14.4097 31.2895 14.4185 31.2895C14.7026 31.2895 14.9705 31.1489 15.1389 30.9115L16.8814 28.4745C13.0596 27.5236 11.0389 26.0284 10.9174 25.9362C10.2673 25.4419 10.1267 24.4955 10.6055 23.8227C11.0829 23.153 11.9966 23.0049 12.6467 23.4962C12.7009 23.5325 16.4304 26.228 23.5 26.228C30.5974 26.228 34.3167 23.5219 34.3533 23.4947C35.0034 23.0079 35.9201 23.1545 36.396 23.8288C36.8704 24.5 36.7327 25.4404 36.0855 25.9332C35.964 26.0254 33.9535 27.5176 30.1405 28.4685L31.8611 30.91C32.0295 31.1489 32.2974 31.288 32.5815 31.288C32.5917 31.288 32.6005 31.288 32.6093 31.2865C34.2215 31.2335 41.2911 30.0029 43.8829 25.3013C43.9605 25.1622 44 25.0065 44 24.8462C44 15.7845 40.2456 5.30178 38.3186 3.46949ZM17.6429 21.6926C16.0248 21.6926 14.7143 20.0009 14.7143 17.9131C14.7143 15.8254 16.0248 14.1337 17.6429 14.1337C19.2609 14.1337 20.5714 15.8254 20.5714 17.9131C20.5714 20.0009 19.2609 21.6926 17.6429 21.6926ZM29.3571 21.6926C27.7391 21.6926 26.4286 20.0009 26.4286 17.9131C26.4286 15.8254 27.7391 14.1337 29.3571 14.1337C30.9752 14.1337 32.2857 15.8254 32.2857 17.9131C32.2857 20.0009 30.9752 21.6926 29.3571 21.6926Z" fill="white"/>
</g>
<defs>
<filter id="filter0_d_6_307" x="0" y="0" width="47" height="38.2894" filterUnits="userSpaceOnUse" color-interpolation-filters="sRGB">
<feFlood flood-opacity="0" result="BackgroundImageFix"/>
<feColorMatrix in="SourceAlpha" type="matrix" values="0 0 0 0 0 0 0 0 0 0 0 0 0 0 0 0 0 0 127 0" result="hardAlpha"/>
<feOffset dy="4"/>
<feGaussianBlur stdDeviation="1.5"/>
<feComposite in2="hardAlpha" operator="out"/>
<feColorMatrix type="matrix" values="0 0 0 0 0 0 0 0 0 0 0 0 0 0 0 0 0 0 0.13 0"/>
<feBlend mode="normal" in2="BackgroundImageFix" result="effect1_dropShadow_6_307"/>
<feBlend mode="normal" in="SourceGraphic" in2="effect1_dropShadow_6_307" result="shape"/>
</filter>
</defs>
</svg>
