<svg width="41" height="41" viewBox="0 0 41 41" fill="none" xmlns="http://www.w3.org/2000/svg">
<path d="M27.6579 3.41663H13.3421C7.12375 3.41663 3.41666 7.12371 3.41666 13.342V27.6408C3.41666 33.8762 7.12375 37.5833 13.3421 37.5833H27.6408C33.8592 37.5833 37.5662 33.8762 37.5662 27.6579V13.342C37.5833 7.12371 33.8762 3.41663 27.6579 3.41663ZM20.5 27.1283C16.8442 27.1283 13.8717 24.1558 13.8717 20.5C13.8717 16.8441 16.8442 13.8716 20.5 13.8716C24.1558 13.8716 27.1283 16.8441 27.1283 20.5C27.1283 24.1558 24.1558 27.1283 20.5 27.1283ZM30.6133 11.7533C30.5279 11.9583 30.4083 12.1462 30.2546 12.317C30.0837 12.4708 29.8958 12.5904 29.6908 12.6758C29.4858 12.7612 29.2637 12.8125 29.0417 12.8125C28.5804 12.8125 28.1533 12.6416 27.8287 12.317C27.675 12.1462 27.5554 11.9583 27.47 11.7533C27.3846 11.5483 27.3333 11.3262 27.3333 11.1041C27.3333 10.882 27.3846 10.66 27.47 10.455C27.5554 10.2329 27.675 10.062 27.8287 9.89121C28.2217 9.49829 28.8196 9.31038 29.3662 9.42996C29.4858 9.44704 29.5883 9.48121 29.6908 9.53246C29.7933 9.56663 29.8958 9.61788 29.9983 9.68621C30.0837 9.73746 30.1692 9.82288 30.2546 9.89121C30.4083 10.062 30.5279 10.2329 30.6133 10.455C30.6987 10.66 30.75 10.882 30.75 11.1041C30.75 11.3262 30.6987 11.5483 30.6133 11.7533Z" fill="white"/>
</svg>
